<?xml version="1.0" encoding="UTF-8"?>
<svg xmlns="http://www.w3.org/2000/svg" xmlns:xlink="http://www.w3.org/1999/xlink" viewBox="0 0 240 240" width="240px" height="240px">
<g id="surface441814">
<path style=" stroke:none;fill-rule:nonzero;fill:rgb(232, 232, 232);fill-opacity:1;" d="M 120 20 C 64.769531 20 20 64.769531 20 120 C 20 170.128906 56.929688 211.53125 105.050781 218.761719 L 105.050781 146.5 L 80.308594 146.5 L 80.308594 120.210938 L 105.050781 120.210938 L 105.050781 102.71875 C 105.050781 73.761719 119.160156 61.050781 143.230469 61.050781 C 154.761719 61.050781 160.851562 61.898438 163.738281 62.289062 L 163.738281 85.230469 L 147.320312 85.230469 C 137.101562 85.230469 133.53125 94.921875 133.53125 105.839844 L 133.53125 120.210938 L 163.480469 120.210938 L 159.421875 146.5 L 133.539062 146.5 L 133.539062 218.96875 C 182.351562 212.359375 220 170.621094 220 120 C 220 64.769531 175.230469 20 120 20 Z M 120 20 "/>
</g>
</svg>
